Genre:Animation | Family
Language: English
IMDb:http://www.imdb.com/title/tt0892769/
Source Video:TELESYNC.German.XviD.iNTERNAL-CiNEJUNKiEZ.Thanks
Source Audio:Russian DVDScr.Thanks
Encoder: Tony2
.............................................
General
Complete name : How.To.Train.Your.Dragon.2010.TELESYNC.XVID.FEEL-FREE
Format : AVI
Format/Info : Audio Video Interleave
File size : 825 MiB
Duration : 1h 25mn
Overall bit rate : 1 341 Kbps
..............................................
Video
Format : xvid
Codec ID : xvid
Duration : 1h 25mn
Bit rate : 1 200 Kbps
Width : 704 pixels
Height : 304 pixels
Display aspect ratio : 2.35:1
Frame rate : 25.000 fps
Resolution : 24 bits
Bits/(Pixel*Frame) : 0.224
Stream size : 738 MiB (89%)
..............................................
Audio
ID : 1
Format : MPEG Audio
Format version : Version 1
Format profile : Layer 3
Codec ID : 55
Codec ID/Hint : MP3
Duration : 1h 25mn
Bit rate mode : Constant
Bit rate : 128 Kbps
Channel(s) : 2 channels
Sampling rate : 48.0 KHz
Resolution : 16 bits
Stream size : 78.7 MiB (10%)
Alignment : Aligned on interleaves
Interleave, duration : 24 ms (0.60 video frame)
Interleave, preload duration : 24 ms
...............................................
Plot: 
A hapless young Viking who aspires to hunt dragons becomes the unlikely friend of a young dragon himself, and learns there may be more to the creatures than he assumed.
...................................................
Screenshots:
 
http://postimg.com/image/17000/16722.jpg
 
http://postimg.com/image/17000/16723.jpg

........................................................